<svg width="799" height="913" viewBox="0 0 799 913" fill="none" xmlns="http://www.w3.org/2000/svg">
<path opacity="0.5" d="M659.025 190C679.766 100.765 748 32.1667 799 0L801.025 911.5H4.5C-19.5872 844 77.5251 778 191.525 746C264.754 725.445 504.025 705 415.525 571.5C327.025 438 347.025 373.5 415.525 326C562.022 224.414 637.525 282.5 659.025 190Z" fill="#FDE1D8"/>
<g clip-path="url(#clip0_26_234)">
<path d="M567.5 884.65C609.446 884.65 643.45 876.858 643.45 867.245C643.45 857.632 609.446 849.84 567.5 849.84C525.554 849.84 491.55 857.632 491.55 867.245C491.55 876.858 525.554 884.65 567.5 884.65Z" fill="#FBCBBB"/>
<path d="M410.694 652.466C410.694 741.603 482.953 813.862 572.09 813.862C661.225 813.862 733.484 741.603 733.484 652.466C733.484 563.331 661.225 491.072 572.09 491.072C482.953 491.072 410.694 563.331 410.694 652.466Z" fill="white"/>
<path d="M545.312 516.947C554.613 514.524 565.916 513.866 576.596 516.911L587.788 517.828C587.788 517.828 590.151 517.336 593.544 517.188C595.29 527.047 601.425 536.318 607.126 544.302C587.227 536.178 563.52 533.525 541.468 537.148C543.468 530.383 544.931 523.615 545.312 516.947Z" fill="#311B19"/>
<path d="M607.469 546.663C608.184 547.772 608.893 548.861 609.585 549.922C614.406 558.633 611.376 567.646 610.535 576.239C608.905 586.101 615.532 596.256 615.503 605.958C613.836 606.33 612.216 606.545 610.74 606.514L608.046 596.41L607.021 606.862C607.021 606.862 592.045 615.961 572.261 614.629C552.477 613.297 541.184 617.662 533.652 613.613L534.58 598.419L533.524 601.476C535.02 579.463 539.364 556.812 548.18 537.217C568.45 535.15 589.564 538.52 607.469 546.663Z" fill="#1B1C1D"/>
<path d="M610.535 576.239C611.376 567.646 614.406 558.633 609.585 549.922C603.525 540.62 582.634 528.747 580.867 516.834C596.838 512.003 613.763 518.832 617.164 530.935C622.144 548.659 615.958 552.775 620.045 556.752C624.133 560.729 631.997 564.713 631.23 572.552C630.462 580.39 627.427 582.804 629.91 587.455C632.392 592.106 633.409 594.108 632.78 598.624C632.78 598.624 623.561 604.16 615.503 605.958C615.532 596.256 608.905 586.101 610.535 576.239Z" fill="#311B19"/>
<path d="M528.152 576.385C528.667 574.913 529.203 573.429 529.749 571.939C529.202 573.429 528.667 574.913 528.152 576.385ZM529.933 571.443C530.424 570.108 530.926 568.767 531.435 567.42C530.926 568.767 530.425 570.108 529.933 571.443ZM510.951 597.185C511.801 586.716 515.609 587.959 515.261 579.602C514.914 571.245 512.444 560.595 520.185 550.64C527.549 541.17 522.13 537.449 526.167 528.617C528.264 524.028 536.061 519.143 546.165 516.501C545.662 523.614 544.084 530.818 541.96 538.009C544.02 537.681 546.097 537.429 548.18 537.217C539.364 556.812 535.02 579.463 533.524 601.476L529.699 612.541C529.699 612.541 528.531 613.752 523.055 613.267C521.109 613.094 518.63 612.712 515.448 611.978C515.448 611.978 510.271 605.555 510.951 597.185Z" fill="#311B19"/>
<path d="M560.148 611.796L559.868 602.07L583.836 603.001L584.469 612.56C576.293 613.2 568.099 613.034 560.148 611.796Z" fill="#F38A71"/>
<path d="M542.755 668.89C544.808 659.821 544.536 650.397 544.405 641.138C544.32 635.113 544.523 629.083 545.006 623.075C545.192 622.573 545.259 622.007 545.151 621.38C545.186 620.996 545.229 620.612 545.265 620.228C547.981 619.357 549.893 618.935 549.893 618.935L560.265 615.835L560.148 611.796C568.099 613.034 576.294 613.2 584.469 612.56L584.665 615.528C584.665 615.528 587.884 616.745 590.752 617.888L592.467 618.645C593.394 631.083 595.01 643.505 600.496 654.596L594.165 676.344L603.824 715.972C603.824 715.972 580.687 733.729 538.045 724.027L545.623 686.893L542.755 668.89Z" fill="#F8AC77"/>
<path d="M558.562 859.733L565.114 728.4L538.57 720.108C538.57 720.108 537.363 822.509 541.969 855.531C541.969 855.531 516.106 864.62 516.166 869.471C516.227 874.322 545.912 870.919 545.912 870.919C545.912 870.919 563.999 875.603 558.562 859.733Z" fill="#F8AC77"/>
<path d="M601.574 863.547C601.574 863.547 605.463 790.449 607.361 725.089C607.643 715.351 571.503 723.779 571.503 723.779C571.503 723.779 580.376 826.323 584.981 859.345C584.981 859.345 559.967 868.23 560.029 873.082C560.09 877.933 588.923 874.733 588.923 874.733C588.923 874.733 607.011 879.416 601.574 863.547Z" fill="#F8AC77"/>
<path d="M568.639 865.133C560.724 868.851 558.312 872.359 558.312 872.359C558.312 872.359 558.724 873.467 569.823 874.553C570.49 871.276 570.056 867.921 568.639 865.133Z" fill="white"/>
<path d="M602.033 861.912C591.721 867.62 579.273 861.245 579.273 861.245C574.941 862.469 571.447 863.814 568.639 865.132C570.056 867.921 570.49 871.276 569.823 874.553C572.683 874.832 576.241 875.11 580.698 875.367C602.451 876.624 603.285 870.966 603.285 870.966C603.39 865.463 601.957 862.209 602.033 861.912Z" fill="#DA5B8D"/>
<path d="M603.285 870.966C603.219 872.039 603.097 873.168 602.897 874.355C602.897 874.355 596.657 876.578 579.6 876.793C560.54 877.032 558.066 874.634 558.066 874.634C558.066 874.634 557.93 873.715 558.312 872.359C578.581 875.975 594.734 873.22 603.285 870.966Z" fill="white"/>
<path d="M576.209 870.016C576.345 870.016 576.459 869.913 576.47 869.776C576.834 865.115 573.327 863.032 573.292 863.011C573.167 862.939 573.009 862.982 572.936 863.107C572.863 863.231 572.906 863.391 573.03 863.463C573.163 863.541 576.287 865.412 575.949 869.735C575.938 869.878 576.045 870.004 576.189 870.015L576.209 870.016Z" fill="#1B1C1D"/>
<path d="M579.956 868.698H579.959C580.102 868.698 580.218 868.579 580.216 868.435C580.17 863.529 577.249 861.771 577.124 861.699C577 861.625 576.84 861.669 576.768 861.792C576.695 861.917 576.737 862.077 576.861 862.15C576.888 862.166 579.65 863.845 579.694 868.441C579.695 868.584 579.812 868.698 579.956 868.698Z" fill="#1B1C1D"/>
<path d="M578.45 858.045C578.772 858.045 578.91 858.184 578.985 858.292C579.535 859.066 578.909 861.331 578.44 862.659C577.942 861.382 577.271 859.206 577.786 858.37C577.914 858.163 578.106 858.06 578.393 858.046L578.45 858.045ZM578.451 863.629H578.456C578.56 863.627 578.655 863.563 578.693 863.466C578.865 863.044 580.34 859.299 579.411 857.989C579.251 857.762 578.941 857.507 578.369 857.524C577.913 857.547 577.558 857.744 577.341 858.096C576.478 859.5 578.033 863.072 578.213 863.475C578.256 863.569 578.348 863.629 578.451 863.629Z" fill="#1B1C1D"/>
<path d="M582.546 860.594L582.624 860.597C582.867 860.618 583.045 860.746 583.185 860.995C583.363 861.313 583.297 861.511 583.231 861.634C582.785 862.471 580.479 862.926 579.081 863.1C579.975 862.111 581.56 860.594 582.546 860.594ZM578.452 863.688L578.472 863.688C578.927 863.652 582.936 863.295 583.692 861.88C583.823 861.635 583.92 861.238 583.641 860.74C583.418 860.342 583.082 860.113 582.67 860.077C581.022 859.915 578.529 862.921 578.25 863.262C578.184 863.344 578.173 863.456 578.221 863.549C578.266 863.635 578.356 863.688 578.452 863.688Z" fill="#1B1C1D"/>
<path d="M535.179 684.631C535.179 684.631 535.232 704.003 535.573 728.94C535.68 736.817 540.129 850.751 540.129 850.751C540.129 850.751 546.923 852.864 561.847 850.477L566.716 729.888L582.318 853.567C582.318 853.567 596.943 856.337 603.05 852.302C603.05 852.302 608.045 779.491 607.361 725.089C607.141 707.563 605.828 690.706 600.788 684.84L535.179 684.631Z" fill="#3859A6"/>
<path d="M580.741 788.684C580.741 788.684 597.173 792.463 597.605 786.147C598.039 779.83 572.224 783.144 580.741 788.684Z" fill="#F8A68D"/>
<path d="M541.537 774.341C541.537 774.341 552.856 777.323 553.146 772.373C553.437 767.423 535.665 769.99 541.537 774.341Z" fill="#F8A68D"/>
<path d="M540.367 766.311C540.367 766.311 547 768.057 547.17 765.157C547.34 762.257 536.926 763.761 540.367 766.311Z" fill="#F8A68D"/>
<path d="M553.437 730.266C553.438 730.267 554.143 730.289 555.375 730.311C556.606 730.335 558.361 730.358 560.452 730.358C566.712 730.358 575.995 730.151 583.272 729.128L583.402 730.054C576.038 731.087 566.735 731.291 560.452 731.292C556.255 731.292 553.41 731.2 553.407 731.2L553.437 730.266Z" fill="#274989"/>
<path d="M602.095 851.465L602.1 851.59L602.105 851.656L601.898 851.679L602.099 851.631L602.105 851.656L601.898 851.679L602.099 851.631L601.685 851.73L602.067 851.543L602.099 851.631L601.685 851.73L602.067 851.543L601.655 851.745L601.98 851.421L602.067 851.543L601.655 851.745L601.98 851.421L601.651 851.749V851.285C601.812 851.284 601.93 851.368 601.98 851.421L601.651 851.749L601.391 851.364C601.448 851.324 601.543 851.284 601.651 851.285V851.749L601.391 851.364L601.648 851.745L601.238 851.537C601.258 851.505 601.277 851.448 601.391 851.364L601.648 851.745L601.238 851.537L601.589 851.715L601.204 851.628L601.238 851.537L601.589 851.715L601.204 851.628L601.223 851.633L601.204 851.63V851.628L601.223 851.633L601.204 851.63C601.214 851.568 601.239 851.275 601.27 850.657C601.488 846.289 602.147 825.2 604.066 732.007V731.999L604.067 731.992C604.067 731.99 604.095 731.473 604.123 730.532C604.151 729.59 604.179 728.226 604.179 726.545C604.18 721.209 603.894 712.667 602.424 704.225C600.96 695.782 598.289 687.445 593.637 682.538L594.315 681.897C599.192 687.065 601.855 695.539 603.345 704.064C604.828 712.591 605.113 721.175 605.113 726.545C605.113 729.929 605 732.035 604.999 732.042L604.533 732.017L605 732.026C603.855 787.636 603.158 817.57 602.736 833.604C602.526 841.62 602.383 846.161 602.287 848.701C602.239 849.971 602.203 850.739 602.175 851.196C602.161 851.426 602.149 851.575 602.138 851.678L602.12 851.815L602.092 851.912L602.027 852.03L601.913 852.138C601.856 852.178 601.76 852.219 601.651 852.219C601.489 852.219 601.37 852.134 601.319 852.081C601.218 851.97 601.219 851.925 601.203 851.891L601.179 851.786L601.165 851.588L601.162 851.481L602.095 851.465Z" fill="#274989"/>
<path d="M559.263 849.273L564.643 730.764L565.576 730.807L560.196 849.316" fill="#274989"/>
<path d="M565.175 721.212L564.733 686.045L565.667 686.034L566.109 721.201" fill="#274989"/>
<path d="M600.977 710.285C598.409 708.778 595.201 705.744 592.568 701.536C589.939 697.328 587.897 691.943 587.734 685.762L588.667 685.738C588.825 691.724 590.805 696.951 593.361 701.041C595.913 705.129 599.052 708.078 601.449 709.479L600.977 710.285Z" fill="#274989"/>
<path d="M539.42 707.019C540.226 706.904 541.124 706.271 541.984 705.19C543.277 703.575 544.46 701.014 545.302 698.114C546.147 695.213 546.659 691.969 546.658 688.973C546.658 687.769 546.575 686.605 546.401 685.522L547.323 685.373C547.507 686.514 547.592 687.727 547.592 688.973C547.591 693.107 546.66 697.628 545.222 701.226C544.501 703.025 543.655 704.593 542.713 705.773C541.773 706.947 540.729 707.761 539.559 707.943L539.42 707.019Z" fill="#274989"/>
<path d="M565.587 716.785L565.589 716.957L565.581 716.785H565.587L565.589 716.957L565.581 716.785C565.603 716.782 566.31 716.753 567.115 715.967C567.919 715.182 568.854 713.598 569.206 710.387C569.841 704.585 569.887 690.542 569.886 686.871C569.886 686.298 569.885 685.977 569.885 685.976L570.819 685.974C570.819 685.974 570.82 686.297 570.82 686.871C570.819 690.561 570.779 704.574 570.135 710.488C569.758 713.946 568.704 715.773 567.671 716.727C566.64 717.682 565.673 717.72 565.598 717.719L565.587 716.785Z" fill="#274989"/>
<path d="M544.17 687.877C544.172 687.878 544.664 687.937 545.62 688.026C548.487 688.295 555.474 688.833 565.398 688.833C573.708 688.833 584.079 688.455 595.815 687.226L595.912 688.154C584.139 689.388 573.737 689.767 565.398 689.767C552.121 689.767 544.075 688.806 544.06 688.805L544.17 687.877Z" fill="#274989"/>
<path d="M569.426 687.616C569.437 688.515 568.717 689.254 567.818 689.265C566.918 689.276 566.18 688.556 566.168 687.657C566.157 686.757 566.877 686.018 567.776 686.007C568.676 685.996 569.415 686.716 569.426 687.616Z" fill="#10141D"/>
<path d="M525.293 861.323C517.378 865.041 514.966 868.549 514.966 868.549C514.966 868.549 515.379 869.658 526.477 870.743C527.144 867.466 526.71 864.112 525.293 861.323Z" fill="white"/>
<path d="M558.687 858.102C548.375 863.81 535.927 857.435 535.927 857.435C531.595 858.66 528.101 860.004 525.293 861.323C526.71 864.112 527.144 867.466 526.477 870.743C529.337 871.022 532.895 871.301 537.352 871.557C559.106 872.814 559.939 867.156 559.939 867.156C560.044 861.653 558.611 858.399 558.687 858.102Z" fill="#DA5B8D"/>
<path d="M559.939 867.156C559.873 868.229 559.751 869.358 559.551 870.545C559.551 870.545 553.311 872.768 536.254 872.983C517.194 873.222 514.72 870.824 514.72 870.824C514.72 870.824 514.584 869.905 514.966 868.549C535.236 872.166 551.388 869.41 559.939 867.156Z" fill="white"/>
<path d="M532.864 866.205C533 866.205 533.114 866.102 533.125 865.965C533.487 861.306 529.981 859.222 529.946 859.2C529.821 859.129 529.662 859.172 529.59 859.296C529.517 859.421 529.56 859.581 529.684 859.653C529.818 859.731 532.941 861.602 532.604 865.924C532.593 866.068 532.7 866.193 532.844 866.205L532.864 866.205Z" fill="#1B1C1D"/>
<path d="M536.61 864.889H536.612C536.756 864.888 536.872 864.769 536.871 864.625C536.824 859.718 533.903 857.962 533.779 857.889C533.655 857.816 533.495 857.859 533.422 857.984C533.349 858.108 533.391 858.268 533.515 858.341C533.542 858.357 536.304 860.035 536.348 864.631C536.35 864.774 536.467 864.889 536.61 864.889Z" fill="#1B1C1D"/>
<path d="M535.104 854.236C535.426 854.236 535.564 854.375 535.639 854.482C536.188 855.256 535.563 857.522 535.094 858.849C534.596 857.574 533.926 855.396 534.44 854.56C534.568 854.354 534.761 854.25 535.048 854.238L535.104 854.236ZM535.106 859.82H535.111C535.215 859.818 535.309 859.754 535.348 859.656C535.519 859.234 536.994 855.49 536.065 854.179C535.904 853.953 535.595 853.695 535.023 853.715C534.568 853.737 534.213 853.935 533.995 854.287C533.132 855.691 534.688 859.262 534.868 859.666C534.91 859.76 535.003 859.82 535.106 859.82Z" fill="#1B1C1D"/>
<path d="M539.2 856.785L539.278 856.787C539.521 856.809 539.699 856.936 539.839 857.186C540.017 857.503 539.951 857.702 539.885 857.825C539.438 858.662 537.132 859.115 535.735 859.29C536.629 858.301 538.214 856.785 539.2 856.785ZM535.106 859.88L535.126 859.879C535.581 859.843 539.59 859.487 540.346 858.071C540.476 857.825 540.575 857.429 540.295 856.93C540.072 856.533 539.737 856.303 539.324 856.268C537.677 856.11 535.184 859.111 534.904 859.453C534.838 859.534 534.827 859.646 534.874 859.74C534.92 859.827 535.01 859.88 535.106 859.88Z" fill="#1B1C1D"/>
<path d="M540.166 658.108L540.305 658.607L540.41 659C540.423 658.635 540.438 658.298 540.453 657.995C540.275 658.074 540.174 658.106 540.166 658.108Z" fill="#E02635"/>
<path d="M549.827 676.022C549.576 672.057 549.876 662.179 550.256 652.949C550.1 652.65 547.603 619.87 547.459 619.567C539.695 620.623 530.565 622.823 529.336 636.723C528.51 644.033 528.266 653.745 529.208 666.895C530.937 691.041 542.069 722.827 542.069 722.827C542.395 729.394 543.895 743.258 546.146 743.335C548.398 743.413 548.204 733.713 548.204 733.713C548.204 733.713 549.307 745.397 551.488 745.321C553.669 745.246 552.006 733.142 552.006 733.142C552.006 733.142 554.502 745.049 556.558 745.101C560.044 745.052 555.669 731.465 555.669 731.465C555.669 731.465 560.47 741.947 562.899 741.204C565.329 740.461 558.816 727.01 558.816 727.01C558.816 727.01 563.444 731.907 564.296 728.93C565.15 725.954 556.836 717.881 556.836 717.881C556.836 717.881 550.35 684.313 549.827 676.022Z" fill="#F8AC77"/>
<path d="M595.038 657.592C600.734 651.906 586.307 615.925 591.624 618.274C592.467 618.645 607.108 622.174 609.917 623.779C613.263 625.691 623.941 644.379 610.902 677.235C601.973 699.736 581.774 726.687 581.774 726.687C579.483 732.85 573.873 745.616 571.703 745.011C569.533 744.406 572.643 735.217 572.643 735.217C572.643 735.217 568.068 746.024 566.011 745.294C563.954 744.564 569.19 733.525 569.19 733.525C569.19 733.525 563.218 744.125 561.244 743.556C557.934 742.457 566.203 730.821 566.203 730.821C566.203 730.821 558.465 739.369 556.372 737.928C554.28 736.486 564.546 725.625 564.546 725.625C564.546 725.625 558.657 728.899 558.741 725.804C558.825 722.709 569.186 717.518 569.186 717.518C569.186 717.518 585.492 687.468 588.491 679.72C589.924 676.015 592.617 666.507 595.038 657.592Z" fill="#F8AC77"/>
<path d="M531.272 627.213C531.272 627.213 586.482 636.262 613.975 628.42C613.975 628.42 618.804 635.061 617.341 651.776C617.341 651.776 605.549 654.523 598.169 653.921C598.169 653.921 589.42 685.747 584.488 686.234C579.556 686.722 556.425 687.525 551.067 685.577C545.71 683.628 544.352 656.159 544.352 656.159C544.352 656.159 529.46 655.063 528.585 650.958C525.839 638.079 531.272 627.213 531.272 627.213Z" fill="#F9A925"/>
<path d="M551.901 635.499C551.901 636.227 552.491 636.817 553.22 636.817C553.948 636.817 554.538 636.227 554.538 635.499C554.538 634.771 553.948 634.18 553.22 634.18C552.491 634.18 551.901 634.771 551.901 635.499Z" fill="white"/>
<path d="M591.195 653.695C591.195 654.424 591.785 655.014 592.513 655.014C593.242 655.014 593.832 654.424 593.832 653.695C593.832 652.967 593.242 652.377 592.513 652.377C591.785 652.377 591.195 652.967 591.195 653.695Z" fill="white"/>
<path d="M591.986 633.389C591.986 634.117 592.577 634.707 593.304 634.707C594.033 634.707 594.623 634.117 594.623 633.389C594.623 632.661 594.033 632.071 593.304 632.071C592.577 632.071 591.986 632.661 591.986 633.389Z" fill="white"/>
<path d="M555.329 658.97C555.329 659.698 555.92 660.289 556.648 660.289C557.376 660.289 557.967 659.698 557.967 658.97C557.967 658.241 557.376 657.651 556.648 657.651C555.92 657.651 555.329 658.241 555.329 658.97Z" fill="white"/>
<path d="M529.749 648.948C529.749 649.676 530.339 650.267 531.067 650.267C531.796 650.267 532.386 649.676 532.386 648.948C532.386 648.22 531.796 647.63 531.067 647.63C530.339 647.63 529.749 648.22 529.749 648.948Z" fill="white"/>
<path d="M533.968 634.444C533.968 635.172 534.559 635.763 535.287 635.763C536.015 635.763 536.605 635.172 536.605 634.444C536.605 633.715 536.015 633.125 535.287 633.125C534.559 633.125 533.968 633.715 533.968 634.444Z" fill="white"/>
<path d="M540.297 645.257C540.297 645.984 540.887 646.575 541.616 646.575C542.345 646.575 542.935 645.984 542.935 645.257C542.935 644.528 542.345 643.938 541.616 643.938C540.887 643.938 540.297 644.528 540.297 645.257Z" fill="white"/>
<path d="M556.648 679.012C556.648 679.74 557.238 680.33 557.967 680.33C558.695 680.33 559.285 679.74 559.285 679.012C559.285 678.284 558.695 677.694 557.967 677.694C557.238 677.694 556.648 678.284 556.648 679.012Z" fill="white"/>
<path d="M574.581 636.554C574.581 637.282 575.171 637.873 575.899 637.873C576.628 637.873 577.218 637.282 577.218 636.554C577.218 635.825 576.628 635.235 575.899 635.235C575.171 635.235 574.581 635.825 574.581 636.554Z" fill="white"/>
<path d="M608.864 633.916C608.864 634.645 609.454 635.235 610.183 635.235C610.91 635.235 611.502 634.645 611.502 633.916C611.502 633.189 610.91 632.598 610.183 632.598C609.454 632.598 608.864 633.189 608.864 633.916Z" fill="white"/>
<path d="M612.028 647.63C612.028 648.358 612.619 648.949 613.347 648.949C614.076 648.949 614.666 648.358 614.666 647.63C614.666 646.902 614.076 646.311 613.347 646.311C612.619 646.311 612.028 646.902 612.028 647.63Z" fill="white"/>
<path d="M570.362 650.003C570.362 650.732 570.952 651.322 571.679 651.322C572.408 651.322 572.998 650.732 572.998 650.003C572.998 649.275 572.408 648.685 571.679 648.685C570.952 648.685 570.362 649.275 570.362 650.003Z" fill="white"/>
<path d="M603.326 643.41C603.326 644.139 603.916 644.729 604.644 644.729C605.373 644.729 605.963 644.139 605.963 643.41C605.963 642.682 605.373 642.091 604.644 642.091C603.916 642.091 603.326 642.682 603.326 643.41Z" fill="white"/>
<path d="M569.571 670.837C569.571 671.565 570.161 672.156 570.888 672.156C571.617 672.156 572.207 671.565 572.207 670.837C572.207 670.109 571.617 669.518 570.888 669.518C570.161 669.518 569.571 670.109 569.571 670.837Z" fill="white"/>
<path d="M546.627 667.672C546.627 668.4 547.217 668.991 547.946 668.991C548.673 668.991 549.264 668.4 549.264 667.672C549.264 666.944 548.673 666.354 547.946 666.354C547.217 666.354 546.627 666.944 546.627 667.672Z" fill="white"/>
<path d="M579.973 682.741C579.973 683.47 580.564 684.06 581.291 684.06C582.02 684.06 582.61 683.47 582.61 682.741C582.61 682.012 582.02 681.422 581.291 681.422C580.564 681.422 579.973 682.012 579.973 682.741Z" fill="white"/>
<path d="M583.283 665.826C583.283 666.555 583.874 667.145 584.602 667.145C585.33 667.145 585.92 666.555 585.92 665.826C585.92 665.098 585.33 664.507 584.602 664.507C583.874 664.507 583.283 665.098 583.283 665.826Z" fill="white"/>
<path d="M571.959 686.834C575.858 686.785 579.751 686.64 583.626 686.398C583.785 686.387 583.906 686.251 583.895 686.093C583.885 685.934 583.771 685.821 583.591 685.824C572.89 686.495 562.045 686.424 551.351 685.616C551.198 685.593 551.056 685.722 551.044 685.881C551.033 686.039 551.15 686.177 551.309 686.189C558.155 686.706 565.066 686.921 571.959 686.834Z" fill="#F09413"/>
<path d="M575.728 679.872C575.821 679.871 575.912 679.823 575.967 679.738C576.052 679.605 576.012 679.428 575.878 679.342C570.379 675.848 565.146 671.853 560.328 667.469C560.212 667.363 560.03 667.373 559.922 667.489C559.816 667.605 559.824 667.788 559.942 667.894C564.784 672.301 570.042 676.316 575.571 679.827L575.728 679.872Z" fill="#F09413"/>
<path d="M560.564 680.93L560.762 680.848C560.875 680.738 560.877 680.555 560.766 680.441C556.41 675.993 553.015 670.538 550.947 664.668C550.893 664.519 550.734 664.437 550.58 664.492C550.431 664.545 550.353 664.709 550.405 664.859C552.502 670.808 555.943 676.336 560.356 680.844L560.564 680.93Z" fill="#F09413"/>
<path d="M596.914 659.144C597.029 659.143 597.138 659.072 597.18 658.957C599.019 653.997 600.014 648.8 600.139 643.511C600.141 643.352 600.017 643.221 599.858 643.217C599.717 643.213 599.567 643.338 599.564 643.497C599.442 648.723 598.458 653.857 596.642 658.758C596.586 658.906 596.662 659.071 596.812 659.126L596.914 659.144Z" fill="#F09413"/>
<path d="M544.759 659.349L544.786 659.348C544.943 659.33 545.058 659.189 545.041 659.031C544.609 654.926 544.65 650.768 545.161 646.674C545.181 646.517 545.069 646.373 544.912 646.353C544.748 646.33 544.61 646.447 544.592 646.604C544.075 650.741 544.034 654.943 544.469 659.092C544.485 659.241 544.612 659.351 544.759 659.349Z" fill="#F09413"/>
<path d="M574.211 618.753C578.052 618.704 581.839 618.096 585.43 616.922C585.918 616.762 586.692 616.117 586.661 615.374C586.634 614.721 586.05 614.255 584.925 613.989C584.714 613.939 584.51 614.069 584.461 614.275C584.412 614.482 584.54 614.69 584.747 614.739C585.452 614.906 585.879 615.156 585.889 615.406C585.902 615.704 585.435 616.108 585.256 616.166C577.195 618.801 568.193 618.555 559.836 615.495C559.732 615.398 559.575 615.203 559.599 615.059C559.61 614.993 559.7 614.764 560.385 614.525C560.585 614.456 560.692 614.236 560.622 614.035C560.553 613.833 560.331 613.727 560.132 613.797C559.354 614.067 558.918 614.45 558.838 614.934C558.73 615.592 559.332 616.083 559.401 616.137L559.505 616.194C564.295 617.959 569.298 618.813 574.211 618.753Z" fill="#F9A925"/>
<path d="M635.273 596.685L635.349 596.647C635.436 596.573 635.452 596.436 635.385 596.339C632.657 592.398 631.124 587.514 631.07 582.587C631.048 580.614 631.261 578.614 631.468 576.68C631.647 574.996 631.833 573.254 631.866 571.526C631.952 567.025 630.786 563.337 628.584 561.142C627.353 559.913 625.786 559.114 624.273 558.342C622.177 557.272 620.196 556.262 619.074 554.215C617.49 551.334 618.395 547.851 619.271 544.483C619.562 543.357 619.866 542.192 620.069 541.068C621.429 533.595 617.843 525.177 611.729 521.486C605.615 517.795 597.283 519.02 592.355 524.336C592.276 524.421 592.275 524.561 592.353 524.647C592.432 524.735 592.56 524.734 592.635 524.652C597.447 519.468 605.572 518.27 611.54 521.871C617.505 525.472 621.004 533.686 619.677 540.978C619.476 542.084 619.176 543.24 618.885 544.358C617.987 547.816 617.059 551.393 618.732 554.438C619.92 556.603 622.049 557.69 624.108 558.74C625.595 559.498 627.132 560.281 628.318 561.466C631.169 564.309 631.514 568.98 631.466 571.512C631.434 573.219 631.249 574.95 631.071 576.624C630.863 578.572 630.649 580.586 630.671 582.588C630.726 587.608 632.289 592.586 635.068 596.603L635.273 596.685Z" fill="#311B19"/>
<path d="M513.641 611.646L513.757 611.576C513.829 611.487 513.82 611.353 513.737 611.275C508.616 606.534 507.618 597.527 511.561 591.607C512.067 590.847 512.656 590.113 513.227 589.402C514.461 587.866 515.738 586.278 516.272 584.303C517.13 581.129 515.873 578.012 514.657 574.998C513.914 573.156 513.147 571.251 512.846 569.328C512.074 564.384 514.331 559.566 516.886 555.096L517.454 554.108C519.807 550.02 522.24 545.793 522.478 541.015C522.545 539.707 522.438 538.38 522.335 537.097C522.193 535.321 522.047 533.485 522.366 531.726C522.96 528.445 525.226 525.363 528.583 523.272C531.619 521.379 535.088 520.457 538.441 519.564C538.549 519.535 538.613 519.419 538.587 519.306C538.561 519.191 538.454 519.128 538.346 519.15C534.965 520.05 531.469 520.981 528.383 522.905C524.927 525.058 522.59 528.244 521.974 531.648C521.644 533.464 521.795 535.331 521.938 537.134C522.039 538.403 522.145 539.716 522.08 540.993C521.847 545.663 519.441 549.843 517.114 553.885L516.545 554.875C513.95 559.416 511.659 564.318 512.453 569.4C512.761 571.374 513.539 573.302 514.291 575.167C515.533 578.249 516.707 581.159 515.889 584.186C515.378 586.072 514.131 587.624 512.924 589.125C512.348 589.843 511.753 590.585 511.236 591.361C507.18 597.453 508.206 606.719 513.475 611.597L513.641 611.646Z" fill="#311B19"/>
<path d="M600.508 582.406L602.059 567.669C602.059 567.669 614.104 560.736 617.085 573.818C620.066 586.9 606.316 589.999 600.508 582.406Z" fill="#F8AC77"/>
<path d="M544.589 588.527L542.126 573.915C542.126 573.915 529.674 567.745 527.511 580.986C525.348 594.229 539.263 596.466 544.589 588.527Z" fill="#F8AC77"/>
<path d="M539.951 588.792L539.843 588.755C539.715 588.68 539.674 588.514 539.75 588.387C539.786 588.326 543.349 582.242 539.216 578.765C537.763 577.544 536.257 577.004 534.733 577.16C532.107 577.431 530.288 579.708 530.271 579.73C530.178 579.847 530.01 579.867 529.893 579.775C529.777 579.684 529.756 579.515 529.848 579.399C529.927 579.298 531.818 576.923 534.673 576.626C536.347 576.454 537.992 577.034 539.561 578.353C544.045 582.126 540.25 588.598 540.211 588.663C540.155 588.756 540.051 588.803 539.951 588.792Z" fill="#5C3A1D"/>
<path d="M533.96 582.837L533.758 582.705C533.683 582.577 533.726 582.413 533.854 582.338C533.903 582.309 538.746 579.54 541.696 583.24C541.79 583.356 541.77 583.525 541.654 583.617C541.538 583.71 541.369 583.691 541.277 583.575C538.614 580.237 534.17 582.776 534.125 582.802L533.96 582.837Z" fill="#5C3A1D"/>
<path d="M530.617 548.062C530.617 548.062 532.631 563.774 535.853 582.241C538.462 597.19 552.971 609.728 571.429 607.716C588.778 605.823 605.388 595.794 606.519 570.798C607.649 545.802 600.42 526.77 577.651 525.249C554.883 523.728 533.258 528.474 530.617 548.062Z" fill="#F8AC77"/>
<path d="M555.033 538.528C555.104 538.381 555.152 538.297 555.152 538.297C555.152 538.297 555.109 538.383 555.033 538.528Z" fill="#1B1C1D"/>
<path d="M605.095 581.997L605.2 581.954C605.322 581.87 605.354 581.703 605.27 581.58C605.23 581.522 601.297 575.671 605.206 571.943C606.579 570.634 608.049 570.002 609.579 570.063C612.218 570.17 614.174 572.329 614.193 572.352C614.293 572.462 614.462 572.472 614.572 572.373C614.684 572.275 614.693 572.105 614.595 571.995C614.51 571.899 612.475 569.646 609.605 569.527C607.924 569.459 606.32 570.14 604.836 571.555C600.594 575.599 604.784 581.821 604.827 581.885C604.889 581.974 604.994 582.015 605.095 581.997Z" fill="#5C3A1D"/>
<path d="M610.704 575.681L610.897 575.537C610.965 575.405 610.911 575.243 610.779 575.176C610.728 575.151 605.723 572.689 603.008 576.564C602.922 576.686 602.952 576.853 603.073 576.938C603.195 577.023 603.362 576.994 603.447 576.873C605.898 573.376 610.491 575.634 610.537 575.656L610.704 575.681Z" fill="#5C3A1D"/>
<path d="M569.292 588.006C564.954 588.39 564.77 592.042 564.769 592.081C564.763 592.238 564.886 592.37 565.043 592.376C565.192 592.385 565.331 592.26 565.339 592.102C565.344 591.955 565.544 588.509 570.135 588.545C570.292 588.535 570.421 588.419 570.423 588.262C570.424 588.104 570.297 587.975 570.14 587.974C569.841 587.972 569.559 587.983 569.292 588.006Z" fill="#682930"/>
<path d="M576.193 589.623C577.141 592.217 581.846 592.882 586.704 591.107C591.562 589.334 594.732 585.793 593.784 583.199C592.836 580.604 588.131 579.94 583.273 581.714C578.416 583.489 575.246 587.029 576.193 589.623Z" fill="#EB9067"/>
<path d="M586.843 564.086C586.843 564.086 589.258 561.158 582.847 558.967C576.437 556.777 574.462 557.786 573.744 559.492C573.088 561.049 574.777 562.968 578.402 564.125C582.753 565.515 585.544 565.755 586.843 564.086Z" fill="#311B19"/>
<path d="M577.705 575.898C578.004 577.814 579.52 579.169 581.092 578.924C582.664 578.679 583.697 576.927 583.398 575.011C583.101 573.095 581.584 571.74 580.012 571.984C578.439 572.229 577.407 573.981 577.705 575.898Z" fill="#050606"/>
<path d="M547.323 580.63C547.621 582.546 549.137 583.9 550.71 583.656C552.282 583.411 553.315 581.659 553.016 579.743C552.718 577.827 551.202 576.471 549.629 576.716C548.057 576.962 547.024 578.713 547.323 580.63Z" fill="#050606"/>
<path d="M557.637 592.513C557.524 595.272 553.242 597.337 548.075 597.124C542.909 596.911 538.812 594.501 538.925 591.742C539.039 588.983 543.32 586.919 548.487 587.132C553.654 587.345 557.751 589.754 557.637 592.513Z" fill="#EB9067"/>
<path d="M541.059 570.68C541.059 570.68 537.87 568.625 543.309 564.588C548.749 560.552 550.938 560.913 552.141 562.32C553.239 563.604 552.213 565.944 549.112 568.15C545.39 570.796 542.804 571.874 541.059 570.68Z" fill="#311B19"/>
<path d="M563.406 585.247C563.513 585.231 563.606 585.154 563.637 585.042C563.679 584.891 563.59 584.734 563.439 584.691C563.415 584.684 560.997 583.991 559.685 582.131C558.655 580.669 558.528 578.253 559.419 577.06C559.955 576.343 560.802 576.159 561.876 576.523L562.037 576.584C565.817 578.057 567.24 576.909 567.769 575.686C568.737 573.441 566.249 564.995 565.832 563.182C565.796 563.028 565.641 562.936 565.49 562.968C565.337 563.003 565.241 563.156 565.276 563.31C566.398 568.188 568.002 573.705 567.245 575.46C566.622 576.904 564.94 577.105 562.243 576.052L562.059 575.983C560.75 575.539 559.65 575.8 558.962 576.718C557.924 578.109 558.043 580.791 559.219 582.458C560.651 584.489 563.179 585.211 563.286 585.24L563.406 585.247Z" fill="#682930"/>
<path d="M559.128 578.896C560.459 586.604 555.271 593.96 547.562 595.291C539.853 596.622 532.499 591.433 531.167 583.725C529.836 576.017 535.025 568.661 542.733 567.33C550.442 565.999 557.797 571.188 559.128 578.896ZM559.913 578.761C558.506 570.619 550.739 565.139 542.598 566.546C534.456 567.951 528.976 575.719 530.383 583.86C531.789 592.002 539.556 597.482 547.697 596.075C555.839 594.669 561.319 586.902 559.913 578.761Z" fill="#10141E"/>
<path d="M599.493 571.925C600.825 579.634 595.637 586.988 587.927 588.319C580.219 589.651 572.864 584.463 571.533 576.753C570.202 569.045 575.39 561.69 583.099 560.359C590.808 559.028 598.162 564.216 599.493 571.925ZM600.278 571.789C598.872 563.648 591.105 558.169 582.963 559.574C574.822 560.98 569.343 568.748 570.748 576.889C572.154 585.031 579.922 590.51 588.063 589.105C596.204 587.698 601.684 579.931 600.278 571.789Z" fill="#10141E"/>
<path d="M570.853 575.157L570.646 575.139C564.458 572.818 559.326 577.059 559.274 577.102C559.106 577.243 558.855 577.221 558.713 577.054C558.572 576.886 558.592 576.635 558.76 576.493C558.816 576.448 564.308 571.912 570.926 574.392C571.131 574.47 571.236 574.699 571.158 574.905C571.107 575.042 570.987 575.134 570.853 575.157Z" fill="#10141E"/>
<path d="M558.962 576.718C559.65 575.8 560.75 575.539 562.059 575.983L562.243 576.052C563.738 576.636 564.908 576.82 565.772 576.635C565.796 576.808 565.787 577.01 565.775 577.223C565.219 579.82 563.415 584.684 563.439 584.691C563.59 584.734 563.679 584.891 563.637 585.042C563.606 585.154 563.513 585.231 563.406 585.247L563.286 585.24C563.179 585.211 560.651 584.489 559.219 582.458C558.043 580.791 557.924 578.109 558.962 576.718Z" fill="#F8AB77"/>
<path d="M558.962 576.718C559.65 575.8 560.75 575.539 562.059 575.983L562.243 576.052C563.738 576.636 564.908 576.82 565.772 576.635C565.796 576.808 565.787 577.01 565.775 577.223C564.9 577.372 563.696 577.23 562.037 576.584L561.876 576.523C560.802 576.158 559.955 576.343 559.419 577.06C558.528 578.253 558.655 580.669 559.685 582.131C560.998 583.991 563.415 584.684 563.439 584.691C563.59 584.734 563.679 584.891 563.637 585.042C563.606 585.154 563.513 585.231 563.406 585.247L563.286 585.24C563.179 585.211 560.651 584.489 559.219 582.458C558.043 580.791 557.924 578.109 558.962 576.718Z" fill="#68292F"/>
<path d="M525.27 535.113C531.44 524.623 544.622 505.498 579.671 516.592C580.058 516.714 580.469 516.744 580.867 516.834C580.867 516.834 581.431 516.818 582.397 516.835C584.39 516.871 588.121 517.048 592.32 517.805C599.904 519.172 608.996 522.429 612.055 530.174C617.631 544.287 614.058 567.067 614.058 567.067C614.058 567.067 610.58 566.444 606.442 565.917C604.056 565.615 601.453 565.343 599.166 565.243C598.925 565.233 598.724 565.174 598.544 565.091C596.21 564.008 598.515 556.942 593.304 546.924C593.304 546.924 591.099 558.305 586.245 560.225C586.109 560.28 585.945 560.328 585.799 560.38C579.814 562.528 565.833 563.367 558.866 560.305C554.948 558.582 554.918 547.762 553.924 547.447C551.954 546.823 552.717 560.168 550.892 560.886C549.649 561.374 542.178 569.153 539.295 566.271C536.948 563.926 537.221 556.76 536.321 557.145C533.854 558.201 537.242 572.77 535.271 573.639C530.858 575.583 527.501 575.339 526.608 575.046C522.093 573.563 518.997 545.778 525.27 535.113Z" fill="#311B19"/>
<path d="M769.96 525.415L741.086 542.281C741.086 542.281 717.681 567.486 711.626 568.933C711.626 568.933 706.766 573.209 702.989 569.527C699.593 566.218 702.273 563.496 702.273 563.496C702.273 563.496 698.195 567.385 694.219 564.287C690.244 561.19 694.575 556.977 694.575 556.977C694.575 556.977 689.157 561.377 685.317 557.944C681.479 554.51 684.638 550.287 684.638 550.287C684.638 550.287 675.232 555.594 672.454 557.434C669.677 559.275 659.769 566.461 656.141 563.66C652.514 560.86 655.539 558.026 667.146 549.733C678.752 541.44 685.771 533.641 694.22 530.627C702.669 527.613 724.229 519.737 724.229 519.737C724.229 519.737 750.934 495.899 758.312 490.615" fill="#F8AB77"/>
<path d="M663.383 560.812C664.004 559.508 663.589 556.278 660.782 556.191C659.201 556.142 654.622 559.741 654.424 560.522C654.227 561.304 656.397 565.229 657.865 564.634C659.334 564.04 663.032 561.548 663.383 560.812Z" fill="#ED44AA"/>
<path d="M745.843 538.472C741.751 533.576 734.711 524.685 730.373 516.598C729.071 514.171 729.552 511.175 731.545 509.272L805.333 438.854L838.386 482.806C838.386 482.806 776.19 527.102 753.535 539.884C750.965 541.333 747.735 540.736 745.843 538.472Z" fill="#3859A6"/>
<path d="M624.482 502.637C620.045 484.897 630.828 466.92 648.567 462.482C666.307 458.045 684.285 468.828 688.723 486.567C693.16 504.307 682.377 522.284 664.638 526.723C662.509 527.254 660.378 527.566 658.266 527.675C655.946 530.866 651.848 534.661 644.621 537.745C644.621 537.745 646.101 532.225 645.653 525.851C635.506 522.285 627.288 513.851 624.482 502.637Z" fill="#F25942"/>
<path d="M670.797 506.505C671.184 506.408 671.529 506.162 671.744 505.803C671.961 505.441 672.012 505.024 671.916 504.643C671.732 503.159 670.721 488.789 670.074 479.308C670.016 478.462 669.283 477.823 668.437 477.881C667.591 477.937 666.951 478.671 667.009 479.518C667.009 479.518 667.446 485.912 667.9 492.311C668.164 496.027 668.379 498.99 668.542 501.117C668.633 502.325 668.714 503.332 668.774 504.038C668.894 505.413 668.966 506.243 670.065 506.508C670.312 506.567 670.562 506.563 670.797 506.505Z" fill="white"/>
<path d="M657.915 507.815C658.302 507.719 658.646 507.472 658.861 507.114C659.079 506.751 659.129 506.335 659.035 505.953C658.851 504.469 657.839 490.1 657.192 480.619C657.134 479.773 656.401 479.134 655.555 479.192C654.71 479.249 654.07 479.983 654.127 480.828C654.127 480.828 654.565 487.223 655.019 493.621C655.282 497.337 655.498 500.3 655.659 502.428C655.752 503.635 655.831 504.642 655.893 505.348C656.011 506.724 656.083 507.554 657.184 507.819C657.43 507.878 657.68 507.874 657.915 507.815Z" fill="white"/>
<path d="M643.935 508.128C644.464 507.996 644.894 507.588 645.044 507.047C645.157 506.639 645.095 506.224 644.901 505.883C644.329 504.5 639.523 490.921 636.372 481.955C636.091 481.156 635.216 480.736 634.414 481.016C633.614 481.297 633.194 482.174 633.475 482.974C633.475 482.974 635.6 489.021 637.743 495.067C638.987 498.578 639.986 501.376 640.709 503.384C641.12 504.524 641.464 505.473 641.712 506.137C642.194 507.43 642.484 508.211 643.614 508.173C643.725 508.169 643.832 508.154 643.935 508.128Z" fill="white"/>
<path d="M675.543 486.961C676.135 486.812 676.515 486.525 676.679 485.844C676.836 485.193 676.55 484.512 675.975 484.167C675.611 483.949 675.195 483.899 674.815 483.994C673.33 484.178 658.961 485.19 649.48 485.837C648.634 485.895 647.995 486.627 648.053 487.473C648.11 488.32 648.843 488.959 649.689 488.901C649.689 488.901 656.083 488.464 662.481 488.01C666.197 487.747 669.161 487.531 671.289 487.369C672.496 487.277 673.503 487.197 674.209 487.136C674.733 487.091 675.178 487.052 675.543 486.961Z" fill="white"/>
<path d="M676.854 499.843C677.446 499.695 677.826 499.408 677.989 498.727C678.146 498.074 677.86 497.394 677.285 497.05C676.923 496.831 676.505 496.782 676.125 496.876C674.64 497.06 660.271 498.071 650.79 498.719C649.945 498.775 649.305 499.51 649.363 500.355C649.421 501.201 650.153 501.841 650.999 501.783C650.999 501.783 657.394 501.346 663.792 500.892C667.509 500.629 670.471 500.413 672.599 500.251C673.807 500.159 674.814 500.079 675.52 500.018C676.044 499.973 676.489 499.934 676.854 499.843Z" fill="white"/>
<path d="M643.672 513.122C643.941 514.197 645.031 514.85 646.105 514.581C647.18 514.312 647.834 513.223 647.565 512.148C647.296 511.073 646.207 510.419 645.132 510.688C644.057 510.958 643.403 512.047 643.672 513.122Z" fill="white"/>
<path d="M439.477 784.165C439.954 764.05 424.033 747.357 403.918 746.881C383.803 746.404 367.11 762.324 366.633 782.44C366.157 802.555 382.078 819.248 402.192 819.724C404.606 819.781 406.969 819.6 409.262 819.207C412.523 822.071 417.84 825.155 426.344 826.72C426.344 826.72 423.421 821.151 422.361 814.201C432.392 807.919 439.176 796.881 439.477 784.165Z" fill="#F25942"/>
<path d="M419.377 796.494C419.803 796.387 420.182 796.116 420.418 795.722C420.658 795.324 420.713 794.865 420.609 794.446C420.406 792.812 419.294 777.001 418.581 766.569C418.518 765.638 417.711 764.935 416.78 764.998C415.85 765.061 415.146 765.868 415.209 766.799C415.209 766.799 415.689 773.835 416.189 780.875C416.48 784.965 416.717 788.225 416.895 790.567C416.996 791.895 417.084 793.003 417.151 793.78C417.283 795.294 417.362 796.206 418.572 796.498C418.843 796.563 419.118 796.558 419.377 796.494Z" fill="white"/>
<path d="M405.202 797.936C405.627 797.829 406.008 797.559 406.244 797.164C406.483 796.766 406.538 796.307 406.434 795.888C406.232 794.254 405.118 778.443 404.407 768.011C404.343 767.08 403.536 766.377 402.606 766.44C401.676 766.503 400.972 767.311 401.035 768.241C401.035 768.241 401.515 775.277 402.015 782.317C402.305 786.407 402.542 789.667 402.721 792.009C402.822 793.337 402.91 794.445 402.977 795.222C403.108 796.735 403.187 797.648 404.397 797.94C404.668 798.005 404.944 798 405.202 797.936Z" fill="white"/>
<path d="M389.82 798.281C390.402 798.135 390.875 797.686 391.04 797.091C391.165 796.642 391.095 796.186 390.883 795.809C390.253 794.289 384.966 779.346 381.498 769.482C381.188 768.602 380.226 768.14 379.344 768.448C378.463 768.758 378.001 769.722 378.31 770.602C378.31 770.602 380.649 777.255 383.006 783.908C384.376 787.772 385.474 790.851 386.269 793.06C386.721 794.314 387.102 795.358 387.373 796.089C387.903 797.513 388.223 798.372 389.467 798.33C389.588 798.326 389.706 798.309 389.82 798.281Z" fill="white"/>
<path d="M424.599 774.989C425.251 774.826 425.669 774.511 425.85 773.761C426.022 773.044 425.707 772.295 425.073 771.915C424.675 771.676 424.216 771.62 423.798 771.725C422.164 771.927 406.353 773.04 395.92 773.753C394.99 773.816 394.287 774.622 394.35 775.554C394.414 776.485 395.22 777.188 396.151 777.125C396.151 777.125 403.187 776.644 410.227 776.145C414.317 775.854 417.577 775.617 419.918 775.439C421.247 775.338 422.355 775.249 423.132 775.183C423.708 775.132 424.198 775.089 424.599 774.989Z" fill="white"/>
<path d="M426.041 789.164C426.693 789.001 427.111 788.686 427.292 787.936C427.464 787.218 427.15 786.469 426.516 786.09C426.117 785.851 425.658 785.795 425.24 785.899C423.606 786.102 407.795 787.214 397.362 787.927C396.432 787.988 395.729 788.797 395.792 789.728C395.856 790.659 396.662 791.362 397.593 791.299C397.593 791.299 404.629 790.818 411.669 790.319C415.759 790.029 419.019 789.791 421.36 789.613C422.689 789.512 423.797 789.424 424.574 789.357C425.15 789.307 425.64 789.265 426.041 789.164Z" fill="white"/>
<path d="M389.531 803.775C389.827 804.958 391.025 805.677 392.208 805.381C393.391 805.085 394.11 803.886 393.814 802.704C393.518 801.521 392.32 800.801 391.137 801.097C389.954 801.394 389.235 802.592 389.531 803.775Z" fill="white"/>
<path d="M709.443 608.166C709.443 588.089 725.719 571.813 745.796 571.813C765.874 571.813 782.15 588.089 782.15 608.166C782.15 628.244 765.874 644.52 745.796 644.52C743.387 644.52 741.034 644.283 738.756 643.836C735.435 646.618 730.058 649.568 721.539 650.927C721.539 650.927 724.585 645.442 725.807 638.533C715.949 632.03 709.443 620.859 709.443 608.166Z" fill="#F9A925"/>
<path d="M754.885 586.001L764.888 617.189L745.469 611.5L746.058 636.216L729.973 596.004L746.254 600.32L740.238 581.816L754.885 586.001Z" fill="white"/>
<path d="M507.815 498.776C508.924 480.379 494.91 464.565 476.512 463.455C458.115 462.344 442.301 476.359 441.191 494.757C440.081 513.154 454.095 528.967 472.492 530.078C474.7 530.211 476.869 530.124 478.981 529.841C481.871 532.572 486.635 535.573 494.366 537.29C494.366 537.29 491.878 532.096 491.14 525.697C500.533 520.284 507.113 510.407 507.815 498.776Z" fill="#F9A925"/>
<path d="M477.013 475.62L489.819 502.824L471.467 499.949L474.935 522.377L455.523 487.682L470.855 489.679L463.184 473.548L477.013 475.62Z" fill="white"/>
<path d="M713.975 758.432C721.468 740.606 741.992 732.229 759.818 739.721C777.644 747.213 786.022 767.738 778.529 785.564C771.037 803.39 750.513 811.767 732.687 804.275C730.548 803.376 728.547 802.288 726.691 801.041C722.704 802.271 716.829 802.884 708.758 800.912C708.758 800.912 713.51 797.179 717.173 791.501C710.847 782.049 709.239 769.702 713.975 758.432Z" fill="#3859A6"/>
<path d="M756.629 755.034C755.629 754.917 754.623 754.896 753.622 754.964C753.598 754.846 753.573 754.729 753.545 754.612C754.436 754.518 755.379 754.622 756.321 754.926C756.424 754.961 756.527 754.996 756.629 755.034ZM751.557 757.494C751.542 757.697 751.52 757.902 751.49 758.108C751.283 757.951 751.068 757.802 750.847 757.661C751.083 757.6 751.319 757.544 751.557 757.494ZM747.253 756.307C747.134 756.29 747.015 756.274 746.895 756.262C747.246 754.421 747.006 752.719 746.165 751.196C746.108 751.093 746.048 750.992 745.986 750.893C746.126 750.875 746.268 750.864 746.412 750.859C747.97 750.816 749.602 751.759 750.563 753.21L750.501 753.243C749.184 753.938 748.084 754.98 747.253 756.307ZM760.424 758.393C761.137 759.896 761.234 761.682 760.814 763.369C760.554 763.048 760.283 762.743 760 762.452C759.232 761.482 758.45 760.547 757.692 759.643C757.297 759.171 756.594 759.11 756.121 759.505L755.927 759.714L755.905 759.705C755.155 759.418 754.376 759.219 753.578 759.109C753.71 758.464 753.785 757.819 753.803 757.183C754.742 757.124 755.686 757.154 756.622 757.281C757.925 757.457 759.206 757.836 760.424 758.393ZM749.305 759.336C748.938 759.422 748.569 759.525 748.2 759.645C748.27 759.4 748.35 759.159 748.44 758.922C748.743 759.043 749.029 759.181 749.305 759.336ZM744.583 756.292C743.48 756.435 742.386 756.755 741.352 757.233C741.521 755.491 742.153 753.789 743.136 752.59C743.381 752.291 743.64 752.03 743.912 751.808C744.023 751.957 744.123 752.113 744.212 752.274C744.905 753.529 744.932 754.917 744.583 756.292ZM750.343 761.41C750.184 761.681 750.012 761.946 749.826 762.202C749.615 762.02 749.399 761.842 749.179 761.671C749.57 761.561 749.959 761.474 750.343 761.41ZM736.227 757.301C735.138 756.844 733.955 756.633 732.79 756.67C732.897 755.207 733.372 753.845 734.197 752.717C735.466 750.981 737.376 749.871 739.307 749.75C740.307 749.686 741.312 749.915 742.178 750.362C741.911 750.608 741.654 750.88 741.411 751.176C739.911 753.006 739.064 755.625 739.074 758.204C738.851 758.272 738.629 758.348 738.412 758.433C738.322 758.441 738.232 758.45 738.142 758.46L738.054 758.388C737.495 757.937 736.877 757.575 736.227 757.301ZM759.764 765.849C759.279 766.626 758.664 767.324 757.936 767.885C757.563 768.173 757.163 768.428 756.742 768.648C756.417 766.184 755.7 763.689 754.483 761.581C754.698 761.642 754.906 761.711 755.106 761.787C756.308 762.251 757.423 763.017 758.4 764.026C758.866 764.62 759.324 765.228 759.764 765.849ZM734.886 759.182C734.288 759.382 733.7 759.617 733.125 759.884C733.034 759.554 732.96 759.225 732.904 758.897C733.57 758.883 734.245 758.977 734.886 759.182ZM754.593 769.438L754.344 769.493C754.212 768.959 754.05 768.431 753.854 767.906C753.296 766.406 752.459 765.022 751.414 763.8C751.768 763.342 752.086 762.863 752.365 762.365C753.631 764.388 754.326 766.941 754.593 769.438ZM745.944 765.446L745.721 765.553C745.309 765.748 744.889 765.915 744.467 766.053C744.166 765.711 743.883 765.351 743.618 764.974C744.26 764.342 744.927 763.799 745.608 763.34C745.637 763.738 745.686 764.136 745.754 764.529C745.808 764.838 745.872 765.143 745.944 765.446ZM733.954 761.949L733.948 761.958L733.945 761.954L733.954 761.949ZM752.091 769.695C751.39 769.681 750.686 769.595 749.997 769.437C749.655 768.85 749.34 768.252 749.063 767.641C749.139 767.106 749.188 766.565 749.2 766.018C749.438 765.832 749.667 765.64 749.89 765.44C750.686 766.417 751.327 767.509 751.764 768.684C751.889 769.018 751.997 769.355 752.091 769.695ZM754.723 771.706L754.723 771.722L754.722 771.707L754.723 771.706ZM738.826 763.635C738.378 764.287 737.968 764.968 737.602 765.674C737.483 765.612 737.365 765.548 737.248 765.479C737.261 765.318 737.28 765.156 737.306 764.995C737.498 764.358 737.749 763.748 738.059 763.174C738.179 762.951 738.308 762.735 738.447 762.525C738.602 762.881 738.729 763.253 738.826 763.635ZM752.501 771.943C752.542 772.355 752.564 772.77 752.57 773.187C752.251 772.772 751.935 772.352 751.627 771.925C751.919 771.941 752.21 771.947 752.501 771.943ZM731.124 760.978C730.05 761.658 729.044 762.457 728.133 763.357C728.187 762.118 728.688 760.951 729.511 760.184C729.866 759.852 730.278 759.584 730.725 759.38C730.798 759.785 730.892 760.19 731.008 760.596C731.045 760.723 731.083 760.85 731.124 760.978ZM763.212 760.062C764.395 760.957 765.47 762.039 766.389 763.277C768.683 766.368 769.647 769.94 769.102 773.337C768.771 775.399 767.66 778.002 765.577 779.331C766.096 777.094 766.066 774.676 765.48 772.418C764.846 769.978 763.714 767.758 762.369 765.705C763.163 763.926 763.468 761.946 763.212 760.062ZM734.602 767.502C734.228 767.616 733.835 767.702 733.434 767.755C733.664 767.152 733.913 766.542 734.193 765.941C734.361 766.101 734.534 766.256 734.711 766.406C734.66 766.767 734.624 767.134 734.602 767.502ZM762.507 780.201C760.271 780.172 758.103 778.86 756.296 777.278C756.903 775.262 756.974 773.209 756.951 771.534C756.949 771.365 756.945 771.195 756.939 771.025C757.78 770.669 758.574 770.21 759.299 769.652C759.928 769.166 760.489 768.608 760.977 767.997C761.157 768.421 761.319 768.861 761.462 769.313C762.506 772.619 762.554 776.134 762.509 780.054L762.507 780.201ZM731.103 767.625C730.526 767.467 729.98 767.202 729.507 766.808C729.218 766.568 728.969 766.278 728.765 765.948C729.706 764.832 730.804 763.855 732.006 763.053C732.197 763.41 732.406 763.753 732.629 764.084C732.033 765.223 731.543 766.425 731.103 767.625ZM744.205 775.491C743.855 776.312 743.47 777.112 743.02 777.865C742.548 777.274 742.091 776.646 741.647 776.007C740.716 774.666 739.845 773.374 739.129 772.091C739.282 771.716 739.441 771.345 739.607 770.979C740.04 770.318 740.399 769.615 740.672 768.885L740.74 768.766C741.736 768.822 742.753 768.747 743.764 768.541C744.336 769.069 744.95 769.547 745.6 769.965C745.498 770.459 745.378 770.969 745.241 771.498L744.205 775.491ZM751.3 780.726C750.538 781.226 749.699 781.516 748.861 781.542C747.557 781.582 746.377 781.057 745.287 780.2L746.325 776.202C746.701 775.307 747.032 774.413 747.348 773.559C747.625 772.81 747.912 772.033 748.175 771.233C748.3 771.277 748.426 771.319 748.552 771.359C749.411 772.725 750.381 774.023 751.366 775.268C751.685 775.672 752.006 776.06 752.328 776.431C752.105 777.868 751.742 779.309 751.3 780.726ZM761.824 782.391C761.195 783.252 760.4 783.981 759.424 784.508C757.143 785.74 754.471 785.572 752.158 784.976C752.527 784.031 752.883 783.064 753.208 782.08C754.071 781.377 754.826 780.479 755.4 779.439C757.563 781.192 759.735 782.191 761.824 782.391ZM750.033 784.288C749.594 784.118 749.185 783.944 748.814 783.774L748.929 783.771C749.393 783.757 749.855 783.69 750.309 783.574C750.218 783.813 750.126 784.051 750.033 784.288ZM740.393 780.847C739.893 781.205 739.344 781.512 738.768 781.736C738.356 780.515 738.054 779.266 737.868 778.009C738.598 779.004 739.443 779.953 740.393 780.847ZM735.44 775.983C735.13 777.039 734.839 778.109 734.554 779.19C734.387 779.819 734.21 780.487 734.045 781.182C732.882 780.271 731.85 778.689 731.616 776.544C731.377 774.34 731.941 772.088 732.616 770.051C733.284 770.05 733.967 769.969 734.648 769.807C734.732 770.675 734.893 771.549 735.129 772.413C734.564 772.803 733.951 773.141 733.301 773.419C732.734 773.661 732.471 774.316 732.713 774.882C732.954 775.449 733.609 775.712 734.176 775.47C734.604 775.287 735.018 775.083 735.418 774.858C735.416 775.232 735.424 775.608 735.44 775.983ZM736.557 782.132C736.413 782.126 736.268 782.113 736.124 782.092C736.184 781.828 736.246 781.568 736.309 781.311C736.387 781.585 736.47 781.859 736.557 782.132ZM742.306 782.47C741.814 783.94 741.302 785.122 740.779 786.075C740.338 785.344 739.941 784.589 739.59 783.818C740.479 783.476 741.34 782.977 742.134 782.337L742.306 782.47ZM749.187 786.359C748.358 788.3 747.428 790.117 746.041 791.555L745.832 791.764C745.116 791.237 744.448 790.659 743.846 790.044C743.245 789.43 742.685 788.783 742.167 788.109C743.019 786.808 743.681 785.321 744.217 783.804C745.204 784.433 746.257 785.02 747.371 785.559C747.997 785.863 748.603 786.128 749.187 786.359ZM762.159 785.311C761.681 788.587 760.585 791.565 758.108 793.292C755.112 795.38 751.146 794.814 747.759 792.986C749.361 791.279 750.416 789.174 751.306 787.073C755.595 788.266 758.593 787.491 760.484 786.47C761.086 786.145 761.645 785.757 762.159 785.311ZM739.408 788.076C738.307 789.325 737.215 789.803 736.246 790.041L736.221 790.047C735.972 789.452 735.782 788.79 735.675 788.064C735.492 786.825 735.545 785.543 735.717 784.286C736.264 784.37 736.824 784.386 737.387 784.337C737.947 785.632 738.622 786.885 739.408 788.076ZM733.873 790.094C731.05 789.56 728.455 787.016 727.053 784.211C724.61 779.321 724.542 773.415 726.878 768.795C727.04 768.473 727.215 768.158 727.4 767.851C727.608 768.095 727.836 768.32 728.081 768.523C728.745 769.076 729.525 769.482 730.373 769.735C729.678 771.904 729.13 774.308 729.399 776.785C729.673 779.303 731.057 782.175 733.568 783.554C733.324 785.116 733.227 786.755 733.469 788.389C733.551 788.95 733.687 789.524 733.873 790.094ZM743.944 793.122C742.647 793.787 741.255 794.016 740.04 793.71C739.181 793.494 738.238 792.92 737.44 792.013C738.736 791.575 739.822 790.837 740.74 789.902C741.215 790.49 741.719 791.059 742.252 791.603C742.774 792.138 743.341 792.646 743.944 793.122ZM738.52 795.548C738.832 795.678 739.157 795.788 739.496 795.873C741.599 796.402 743.945 795.886 745.969 794.517C750.172 797.023 755.401 797.897 759.383 795.122C763.43 792.301 764.451 787.173 764.683 782.146C764.813 782.109 764.944 782.069 765.074 782.026C767.574 781.188 770.523 778.559 771.304 773.69C771.945 769.695 770.835 765.525 768.18 761.948C766.517 759.707 764.398 757.914 762.043 756.702C760.949 754.9 759.148 753.5 757.009 752.805C755.561 752.336 754.097 752.229 752.726 752.477C751.401 750.094 748.875 748.558 746.348 748.63C745.623 748.652 744.928 748.791 744.271 749.045C742.854 747.981 741.023 747.406 739.166 747.523C736.582 747.687 734.051 749.136 732.396 751.401C731.215 753.017 730.585 754.98 730.539 757.062C729.593 757.375 728.718 757.873 727.989 758.553C726.624 759.828 725.843 761.786 725.9 763.793C725.919 764.43 726.02 765.046 726.197 765.627C725.708 766.312 725.269 767.034 724.888 767.788C722.24 773.025 722.305 779.7 725.058 785.208C726.181 787.455 727.861 789.412 729.79 790.72C731.472 791.86 733.234 792.438 734.97 792.431C735.821 793.769 737.008 794.912 738.52 795.548Z" fill="white"/>
<path d="M422.129 609.29C414.638 591.464 394.113 583.087 376.287 590.579C358.46 598.071 350.083 618.596 357.576 636.421C365.068 654.247 385.592 662.625 403.419 655.133C405.557 654.234 407.558 653.146 409.414 651.899C413.4 653.129 419.276 653.742 427.347 651.77C427.347 651.77 422.595 648.036 418.931 642.359C425.258 632.906 426.867 620.56 422.129 609.29Z" fill="#DA5B8D"/>
<path d="M379.785 605.784C380.725 605.479 381.669 605.375 382.56 605.47C382.532 605.586 382.506 605.704 382.483 605.821C381.482 605.754 380.476 605.775 379.476 605.892C379.577 605.854 379.681 605.818 379.785 605.784ZM385.258 608.519C385.036 608.66 384.822 608.808 384.614 608.965C384.585 608.76 384.563 608.554 384.548 608.351C384.786 608.402 385.022 608.457 385.258 608.519ZM385.604 604.101L385.542 604.067C386.503 602.617 388.135 601.673 389.692 601.717C389.837 601.722 389.979 601.732 390.118 601.751C390.057 601.85 389.997 601.951 389.941 602.054C389.099 603.577 388.859 605.278 389.211 607.119C389.09 607.132 388.97 607.147 388.852 607.165C388.022 605.838 386.921 604.796 385.604 604.101ZM379.483 608.139C380.419 608.012 381.363 607.982 382.303 608.041C382.319 608.677 382.394 609.322 382.527 609.967C381.728 610.077 380.95 610.275 380.2 610.563L380.178 610.572L379.984 610.363C379.512 609.967 378.809 610.029 378.413 610.501C377.655 611.405 376.873 612.339 376.105 613.31C375.823 613.6 375.551 613.906 375.291 614.227C374.871 612.54 374.968 610.754 375.682 609.251C376.899 608.694 378.18 608.315 379.483 608.139ZM387.665 609.78C387.754 610.017 387.835 610.258 387.905 610.503C387.536 610.383 387.167 610.28 386.8 610.194C387.075 610.038 387.362 609.901 387.665 609.78ZM391.893 603.132C391.982 602.971 392.082 602.815 392.193 602.665C392.465 602.888 392.724 603.148 392.969 603.448C393.952 604.647 394.584 606.349 394.754 608.091C393.719 607.613 392.624 607.293 391.521 607.15C391.173 605.775 391.2 604.387 391.893 603.132ZM386.926 612.529C386.706 612.7 386.49 612.878 386.279 613.06C386.093 612.803 385.92 612.539 385.762 612.268C386.146 612.332 386.535 612.419 386.926 612.529ZM398.051 609.246L397.963 609.318C397.873 609.308 397.783 609.299 397.693 609.29C397.475 609.206 397.254 609.13 397.031 609.062C397.04 606.483 396.193 603.864 394.694 602.034C394.451 601.738 394.194 601.466 393.926 601.22C394.792 600.773 395.798 600.544 396.798 600.607C398.729 600.729 400.64 601.839 401.908 603.575C402.733 604.703 403.208 606.064 403.315 607.527C402.15 607.491 400.967 607.702 399.878 608.159C399.228 608.433 398.609 608.795 398.051 609.246ZM377.705 614.884C378.682 613.875 379.798 613.109 380.999 612.645C381.199 612.569 381.407 612.5 381.622 612.439C380.405 614.547 379.688 617.042 379.362 619.505C378.942 619.285 378.542 619.031 378.169 618.743C377.44 618.181 376.827 617.484 376.341 616.707C376.781 616.085 377.239 615.478 377.705 614.884ZM403.201 609.755C403.145 610.082 403.071 610.412 402.98 610.742C402.405 610.474 401.817 610.239 401.219 610.04C401.86 609.835 402.535 609.741 403.201 609.755ZM383.739 613.222C384.019 613.72 384.337 614.2 384.691 614.657C383.646 615.88 382.809 617.264 382.25 618.764C382.055 619.289 381.893 619.817 381.761 620.351L381.512 620.296C381.779 617.799 382.475 615.246 383.739 613.222ZM390.351 615.387C390.419 614.994 390.468 614.596 390.497 614.197C391.178 614.656 391.845 615.2 392.487 615.832C392.223 616.208 391.939 616.569 391.639 616.911C391.216 616.773 390.796 616.606 390.384 616.411L390.161 616.304C390.233 616.001 390.297 615.696 390.351 615.387ZM402.159 612.811L402.158 612.816L402.15 612.807L402.159 612.811ZM384.341 619.542C384.779 618.366 385.418 617.275 386.215 616.298C386.437 616.498 386.667 616.69 386.905 616.876C386.917 617.423 386.965 617.964 387.043 618.499C386.764 619.109 386.45 619.707 386.109 620.295C385.419 620.453 384.715 620.538 384.014 620.553C384.107 620.213 384.216 619.875 384.341 619.542ZM381.384 622.564L381.382 622.579V622.564H381.384ZM397.659 613.383C397.797 613.593 397.926 613.809 398.046 614.032C398.355 614.606 398.607 615.216 398.799 615.853C398.825 616.014 398.844 616.176 398.857 616.336C398.74 616.405 398.622 616.47 398.503 616.532C398.137 615.826 397.727 615.145 397.279 614.493C397.376 614.111 397.504 613.739 397.659 613.383ZM384.478 622.782C384.171 623.209 383.854 623.63 383.535 624.045C383.541 623.627 383.564 623.213 383.604 622.801C383.894 622.804 384.187 622.799 384.478 622.782ZM405.097 611.453C405.213 611.048 405.307 610.643 405.38 610.238C405.827 610.442 406.238 610.71 406.594 611.042C407.417 611.809 407.919 612.975 407.973 614.215C407.061 613.315 406.055 612.515 404.981 611.835C405.021 611.708 405.061 611.581 405.097 611.453ZM373.736 616.562C372.391 618.616 371.259 620.836 370.625 623.276C370.039 625.534 370.009 627.952 370.528 630.189C368.445 628.86 367.333 626.257 367.003 624.194C366.458 620.798 367.421 617.226 369.716 614.135C370.635 612.897 371.71 611.815 372.894 610.92C372.637 612.804 372.942 614.784 373.736 616.562ZM401.394 617.263C401.571 617.114 401.744 616.959 401.912 616.799C402.191 617.399 402.441 618.01 402.67 618.613C402.271 618.56 401.877 618.473 401.503 618.359C401.48 617.991 401.445 617.625 401.394 617.263ZM373.596 630.912C373.551 626.992 373.599 623.477 374.643 620.171C374.786 619.719 374.947 619.279 375.128 618.854C375.616 619.466 376.178 620.024 376.806 620.509C377.531 621.068 378.325 621.527 379.166 621.883C379.16 622.053 379.156 622.223 379.154 622.392C379.131 624.066 379.202 626.12 379.809 628.136C378.003 629.718 375.834 631.03 373.598 631.058L373.596 630.912ZM403.476 614.942C403.7 614.611 403.908 614.268 404.099 613.911C405.301 614.713 406.399 615.69 407.339 616.806C407.136 617.135 406.887 617.426 406.598 617.666C406.124 618.06 405.579 618.324 405.002 618.483C404.562 617.283 404.072 616.081 403.476 614.942ZM390.864 622.355C390.727 621.827 390.607 621.317 390.504 620.823C391.155 620.404 391.77 619.927 392.341 619.399C393.352 619.605 394.369 619.68 395.365 619.623L395.433 619.743C395.707 620.473 396.065 621.175 396.499 621.837C396.664 622.203 396.823 622.574 396.976 622.949C396.259 624.232 395.39 625.524 394.458 626.864C394.013 627.503 393.557 628.132 393.085 628.723C392.636 627.97 392.25 627.17 391.9 626.349L390.864 622.355ZM383.777 627.289C384.099 626.918 384.419 626.53 384.739 626.126C385.724 624.881 386.694 623.583 387.553 622.217C387.679 622.177 387.805 622.135 387.93 622.09C388.193 622.891 388.48 623.667 388.757 624.416C389.073 625.271 389.404 626.165 389.78 627.059L390.818 631.057C389.728 631.914 388.548 632.44 387.244 632.4C386.406 632.374 385.567 632.083 384.805 631.584C384.363 630.167 384.001 628.726 383.777 627.289ZM380.706 630.296C381.279 631.337 382.034 632.235 382.898 632.938C383.222 633.921 383.578 634.889 383.946 635.834C381.634 636.43 378.962 636.598 376.681 635.366C375.705 634.839 374.91 634.11 374.281 633.249C376.37 633.049 378.541 632.05 380.706 630.296ZM385.796 634.431C386.251 634.548 386.712 634.615 387.175 634.629L387.291 634.632C386.919 634.802 386.51 634.976 386.072 635.146C385.979 634.909 385.887 634.671 385.796 634.431ZM398.238 628.867C398.051 630.124 397.749 631.373 397.337 632.594C396.761 632.369 396.212 632.063 395.712 631.705C396.662 630.81 397.507 629.861 398.238 628.867ZM400.688 625.716C401.086 625.941 401.501 626.145 401.929 626.328C402.496 626.569 403.15 626.307 403.392 625.74C403.634 625.174 403.371 624.518 402.805 624.277C402.154 623.999 401.541 623.66 400.976 623.27C401.211 622.406 401.372 621.533 401.457 620.664C402.138 620.826 402.821 620.907 403.489 620.909C404.164 622.946 404.728 625.198 404.489 627.402C404.255 629.547 403.223 631.128 402.06 632.04C401.894 631.345 401.718 630.677 401.551 630.047C401.266 628.967 400.975 627.896 400.664 626.84C400.681 626.466 400.689 626.09 400.688 625.716ZM399.796 632.169C399.859 632.426 399.921 632.686 399.981 632.95C399.837 632.971 399.692 632.983 399.547 632.99C399.635 632.717 399.718 632.443 399.796 632.169ZM393.971 633.194C394.765 633.835 395.626 634.334 396.514 634.676C396.163 635.447 395.767 636.202 395.326 636.933C394.803 635.979 394.291 634.798 393.799 633.327L393.971 633.194ZM388.733 636.417C389.848 635.878 390.901 635.291 391.888 634.662C392.424 636.179 393.086 637.665 393.938 638.967C393.42 639.641 392.86 640.288 392.258 640.902C391.657 641.516 390.989 642.095 390.273 642.621L390.064 642.413C388.676 640.975 387.747 639.158 386.918 637.217C387.502 636.986 388.107 636.72 388.733 636.417ZM375.621 637.327C377.512 638.349 380.509 639.124 384.798 637.931C385.689 640.031 386.744 642.137 388.347 643.843C384.959 645.672 380.992 646.237 377.997 644.15C375.52 642.423 374.423 639.445 373.946 636.169C374.46 636.615 375.019 637.002 375.621 637.327ZM398.718 635.195C399.281 635.244 399.84 635.228 400.388 635.143C400.56 636.4 400.613 637.683 400.43 638.921C400.322 639.648 400.134 640.31 399.884 640.905L399.859 640.899C398.89 640.66 397.798 640.182 396.697 638.934C397.483 637.743 398.158 636.49 398.718 635.195ZM402.636 639.247C402.878 637.612 402.781 635.973 402.537 634.412C405.047 633.033 406.433 630.161 406.705 627.643C406.975 625.166 406.427 622.762 405.731 620.593C406.58 620.34 407.359 619.934 408.024 619.381C408.27 619.177 408.497 618.953 408.705 618.709C408.89 619.016 409.065 619.331 409.227 619.652C411.562 624.273 411.496 630.179 409.052 635.069C407.65 637.874 405.055 640.418 402.231 640.952C402.418 640.382 402.554 639.808 402.636 639.247ZM393.852 642.461C394.386 641.917 394.89 641.348 395.365 640.759C396.283 641.695 397.369 642.433 398.664 642.871C397.867 643.778 396.923 644.352 396.065 644.568C394.85 644.874 393.458 644.645 392.161 643.98C392.763 643.504 393.33 642.995 393.852 642.461ZM401.134 643.288C402.87 643.295 404.633 642.718 406.315 641.577C408.244 640.269 409.925 638.312 411.047 636.065C413.8 630.558 413.864 623.883 411.217 618.646C410.836 617.892 410.397 617.17 409.908 616.484C410.085 615.904 410.186 615.287 410.204 614.651C410.262 612.644 409.481 610.686 408.116 609.411C407.387 608.73 406.512 608.233 405.566 607.92C405.52 605.838 404.89 603.875 403.709 602.259C402.054 599.994 399.523 598.545 396.938 598.381C395.083 598.264 393.251 598.839 391.833 599.902C391.177 599.649 390.482 599.509 389.757 599.488C387.23 599.415 384.704 600.952 383.379 603.335C382.008 603.087 380.543 603.193 379.096 603.663C376.956 604.358 375.157 605.758 374.063 607.56C371.707 608.772 369.588 610.564 367.925 612.806C365.269 616.383 364.16 620.553 364.8 624.547C365.581 629.416 368.531 632.046 371.031 632.884C371.161 632.927 371.292 632.967 371.423 633.004C371.654 638.031 372.675 643.159 376.722 645.98C380.705 648.755 385.933 647.88 390.136 645.374C392.16 646.744 394.505 647.259 396.609 646.731C396.948 646.646 397.273 646.536 397.585 646.405C399.097 645.77 400.284 644.627 401.134 643.288Z" fill="white"/>
<path d="M743.179 712.029L712.066 699.777C712.066 699.777 677.785 696.98 672.902 693.118C672.902 693.118 666.536 691.944 667.091 686.698C667.591 681.984 671.388 682.406 671.388 682.406C671.388 682.406 665.809 681.608 665.784 676.567C665.759 671.527 671.748 672.324 671.748 672.324C671.748 672.324 664.939 670.79 665.261 665.649C665.584 660.508 670.856 660.378 670.856 660.378C670.856 660.378 660.868 656.271 657.704 655.227C654.539 654.183 642.509 650.839 642.721 646.261C642.92 641.953 646.775 642.303 660.47 646.292C674.166 650.282 684.637 650.972 692.231 655.746C699.825 660.519 719.35 672.587 719.35 672.587C719.35 672.587 754.6 678.822 763.316 681.35" fill="#A35F48"/>
<path d="M648.369 650.177C649.779 649.859 652.059 647.534 650.391 645.275C649.452 644.002 644.824 643.083 644.087 643.412C643.351 643.741 641.441 647.226 643.709 648.524C645.084 649.311 647.574 650.357 648.369 650.177Z" fill="#BF7061"/>
<path d="M718.441 700.7C724.24 687.573 722.387 683.426 726.057 675.015C727.158 672.489 729.81 671.015 732.538 671.404L833.512 685.817L819.425 738.975C819.425 738.975 746.147 717.511 722.09 707.618C719.361 706.495 717.249 703.399 718.441 700.7Z" fill="#DA5B8D"/>
<path d="M708.194 883.36L686.652 857.787C686.652 857.787 657.825 839.022 655.367 833.303C655.367 833.303 650.325 829.242 653.308 824.893C655.99 820.982 659.129 823.159 659.129 823.159C659.129 823.159 654.601 819.805 656.975 815.359C659.35 810.913 664.241 814.463 664.241 814.463C664.241 814.463 658.981 809.874 661.709 805.505C664.437 801.137 669.138 803.53 669.138 803.53C669.138 803.53 662.305 795.168 660.017 792.744C657.731 790.32 648.738 781.657 651.101 777.731C653.324 774.036 656.549 776.177 666.7 786.199C676.851 796.222 685.733 801.808 690.143 809.619C694.554 817.43 705.991 837.331 705.991 837.331C705.991 837.331 734.034 859.58 740.499 865.95" fill="#F8AC78"/>
<path d="M654.208 783.861C655.599 784.252 658.71 783.292 658.317 780.51C658.096 778.945 654.462 775.936 653.658 775.875C652.853 775.813 649.516 777.971 650.894 780.192C651.729 781.538 653.422 783.642 654.208 783.861Z" fill="#FBC4A0"/>
<path d="M691.821 861.63C703.165 852.839 703.507 848.31 710.735 842.657C712.905 840.96 715.94 840.923 718.154 842.563L816.937 917.412L762.451 943.325C762.451 943.325 708.199 889.594 691.742 869.45C689.874 867.166 689.488 863.438 691.821 861.63Z" fill="#F25942"/>
</g>
<defs>
<clipPath id="clip0_26_234">
<rect width="467" height="467" fill="white" transform="matrix(-1 0 0 1 801 446)"/>
</clipPath>
</defs>
</svg>
