<svg width="159" height="159" viewBox="0 0 159 159" fill="none" xmlns="http://www.w3.org/2000/svg">
<path d="M158.726 79.364C158.726 123.195 123.194 158.728 79.3636 158.728C35.5319 158.728 0 123.195 0 79.364C0 35.5334 35.5319 2.42738e-05 79.3636 2.42738e-05C123.194 2.42738e-05 158.726 35.5334 158.726 79.364Z" fill="#FDE1D8"/>
<path d="M129.187 128.409C126.421 118.571 118.75 110.871 108.922 108.065L90.7927 102.893H79.3633H67.934L49.804 108.065C39.9764 110.871 32.3055 118.571 29.5388 128.409L24.5503 136.727C38.7987 150.347 58.0962 158.728 79.3633 158.728C100.63 158.728 119.927 150.347 134.175 136.728L129.187 128.409Z" fill="#58928B"/>
<path d="M90.0434 88.3055H68.6821L65.3154 105.928C65.3154 105.928 71.3421 112.246 79.3634 112.579C87.3834 112.246 93.4101 105.928 93.4101 105.928L90.0434 88.3055Z" fill="#F4F6F5"/>
<path d="M103.257 63.5788C103.257 78.0228 92.5595 97.3668 79.3635 97.3668C66.1662 97.3668 55.4692 78.0228 55.4692 63.5788C55.4692 49.1348 66.1662 37.4241 79.3635 37.4241C92.5595 37.4241 103.257 49.1348 103.257 63.5788Z" fill="white"/>
<path d="M60.9153 38.4294C56.8284 47.7574 73.4886 47.2614 78.174 46.7054C79.3433 46.5668 80.63 46.1801 81.7846 46.3814C83.0686 46.6041 84.3273 47.2747 85.666 47.4814C88.5806 47.9321 91.6006 47.7081 94.4073 46.8014C95.05 46.5948 95.7673 46.3561 96.3726 46.6534C96.7393 46.8321 96.9913 47.1774 97.2246 47.5134C98.326 49.1001 99.3473 50.7801 99.8513 52.6441C100.566 55.2828 100.197 58.0721 100.055 60.8014C99.9673 62.4948 99.8446 68.4908 102.037 68.8921C102.37 66.0521 102.698 63.1934 103.029 60.3468C103.029 60.3468 105.402 51.7641 104.565 47.2721C103.257 40.2548 98.174 31.5574 77.8846 31.7734C63.7793 31.9241 60.9264 38.4054 60.9153 38.4294Z" fill="#3C3C3C"/>
<path d="M66.7408 43.3721C66.7008 43.5948 66.5915 43.8068 66.3968 44.0028C65.9088 44.4935 65.1795 44.6241 64.5341 44.8735C62.4821 45.6628 61.2203 47.6868 60.1051 49.5814C59.3884 50.7988 58.6531 52.0761 58.564 53.4855C58.4416 55.4161 59.516 57.1041 59.7755 58.9681C59.9796 60.4375 59.6285 61.7828 59.2255 63.1841C59.0375 63.8361 57.6113 69.4641 56.4509 68.8855L55.4608 60.3468C55.4608 60.3468 53.0879 51.7641 53.9249 47.2721C54.7337 42.9308 56.8817 37.6468 62.2821 39.1215C63.3861 39.4228 67.0408 41.6935 66.7408 43.3721Z" fill="#3C3C3C"/>
</svg>
